<?xml version="1.0" standalone="no"?>
<!DOCTYPE svg PUBLIC "-//W3C//DTD SVG 20010904//EN"
 "http://www.w3.org/TR/2001/REC-SVG-20010904/DTD/svg10.dtd">
<svg version="1.0" xmlns="http://www.w3.org/2000/svg"
 width="256.000000pt" height="256.000000pt" viewBox="0 0 256.000000 256.000000"
 preserveAspectRatio="xMidYMid meet">

<g transform="translate(0.000000,256.000000) scale(0.100000,-0.100000)"
fill="#000000" stroke="none">
<path d="M1200 2440 l0 -40 -80 0 -80 0 0 -40 0 -40 -80 0 -80 0 0 -40 0 -40
-80 0 -80 0 0 -40 0 -40 -40 0 -40 0 0 -40 0 -40 -40 0 -40 0 0 -40 0 -40 -40
0 -40 0 0 -680 0 -680 40 0 40 0 0 -40 0 -40 40 0 40 0 0 -40 0 -40 40 0 40 0
0 -40 0 -40 80 0 80 0 0 -40 0 -40 80 0 80 0 0 -40 0 -40 80 0 80 0 0 -40 0
-40 120 0 120 0 0 40 0 40 80 0 80 0 0 40 0 40 80 0 80 0 0 40 0 40 80 0 80 0
0 40 0 40 40 0 40 0 0 40 0 40 40 0 40 0 0 760 0 760 -40 0 -40 0 0 40 0 40
-80 0 -80 0 0 40 0 40 -80 0 -80 0 0 40 0 40 -80 0 -80 0 0 40 0 40 -80 0 -80
0 0 40 0 40 -80 0 -80 0 0 -40z m160 -160 l0 -40 80 0 80 0 0 -40 0 -40 80 0
80 0 0 -40 0 -40 40 0 40 0 0 -40 0 -40 -40 0 -40 0 0 -40 0 -40 40 0 40 0 0
-40 0 -40 -40 0 -40 0 0 40 0 40 -80 0 -80 0 0 -40 0 -40 40 0 40 0 0 -40 0
-40 -40 0 -40 0 0 40 0 40 -120 0 -120 0 0 -40 0 -40 -40 0 -40 0 0 -40 0 -40
-40 0 -40 0 0 40 0 40 40 0 40 0 0 40 0 40 -80 0 -80 0 0 -40 0 -40 -40 0 -40
0 0 40 0 40 40 0 40 0 0 40 0 40 -80 0 -80 0 0 -40 0 -40 -40 0 -40 0 0 40 0
40 40 0 40 0 0 40 0 40 -40 0 -40 0 0 40 0 40 40 0 40 0 0 40 0 40 80 0 80 0
0 40 0 40 120 0 120 0 0 40 0 40 40 0 40 0 0 -40z m-640 -320 l0 -40 -40 0
-40 0 0 40 0 40 40 0 40 0 0 -40z m1200 0 l0 -40 -40 0 -40 0 0 40 0 40 40 0
40 0 0 -40z m-1200 -200 l0 -80 -40 0 -40 0 0 80 0 80 40 0 40 0 0 -80z m1200
0 l0 -80 -40 0 -40 0 0 80 0 80 40 0 40 0 0 -80z m-1040 -80 l0 -80 -40 0 -40
0 0 80 0 80 40 0 40 0 0 -80z m560 40 l0 -40 -40 0 -40 0 0 40 0 40 40 0 40 0
0 -40z m320 -40 l0 -80 -40 0 -40 0 0 80 0 80 40 0 40 0 0 -80z m-720 -80 l0
-80 -40 0 -40 0 0 80 0 80 40 0 40 0 0 -80z m560 0 l0 -80 -40 0 -40 0 0 80 0
80 40 0 40 0 0 -80z m-400 -80 l0 -80 -40 0 -40 0 0 80 0 80 40 0 40 0 0 -80z
m240 0 l0 -80 -40 0 -40 0 0 80 0 80 40 0 40 0 0 -80z m-720 -80 l0 -80 -40 0
-40 0 0 80 0 80 40 0 40 0 0 -80z m1200 0 l0 -80 -40 0 -40 0 0 80 0 80 40 0
40 0 0 -80z m-1040 -80 l0 -80 -40 0 -40 0 0 80 0 80 40 0 40 0 0 -80z m880 0
l0 -80 -40 0 -40 0 0 80 0 80 40 0 40 0 0 -80z m-720 -80 l0 -80 -40 0 -40 0
0 80 0 80 40 0 40 0 0 -80z m560 0 l0 -80 -40 0 -40 0 0 80 0 80 40 0 40 0 0
-80z m-400 -80 l0 -80 -40 0 -40 0 0 80 0 80 40 0 40 0 0 -80z m240 0 l0 -80
-40 0 -40 0 0 80 0 80 40 0 40 0 0 -80z m-720 -80 l0 -80 -40 0 -40 0 0 80 0
80 40 0 40 0 0 -80z m1200 0 l0 -80 -40 0 -40 0 0 80 0 80 40 0 40 0 0 -80z
m-1040 -80 l0 -80 -40 0 -40 0 0 80 0 80 40 0 40 0 0 -80z m880 0 l0 -80 -40
0 -40 0 0 80 0 80 40 0 40 0 0 -80z m-720 -80 l0 -80 -40 0 -40 0 0 80 0 80
40 0 40 0 0 -80z m560 0 l0 -80 -40 0 -40 0 0 80 0 80 40 0 40 0 0 -80z m-400
-80 l0 -80 -40 0 -40 0 0 80 0 80 40 0 40 0 0 -80z m240 0 l0 -80 -40 0 -40 0
0 80 0 80 40 0 40 0 0 -80z m-720 -80 l0 -80 -40 0 -40 0 0 80 0 80 40 0 40 0
0 -80z m1200 -80 l0 -160 -40 0 -40 0 0 160 0 160 40 0 40 0 0 -160z m-1040 0
l0 -80 -40 0 -40 0 0 80 0 80 40 0 40 0 0 -80z m880 -80 l0 -160 -40 0 -40 0
0 160 0 160 40 0 40 0 0 -160z m-720 0 l0 -80 -40 0 -40 0 0 80 0 80 40 0 40
0 0 -80z m560 -80 l0 -160 -40 0 -40 0 0 160 0 160 40 0 40 0 0 -160z m-400 0
l0 -80 -40 0 -40 0 0 80 0 80 40 0 40 0 0 -80z m240 -80 l0 -160 -40 0 -40 0
0 160 0 160 40 0 40 0 0 -160z"/>
<path d="M1200 2120 l0 -40 -80 0 -80 0 0 -40 0 -40 80 0 80 0 0 -40 0 -40 80
0 80 0 0 40 0 40 80 0 80 0 0 40 0 40 -80 0 -80 0 0 40 0 40 -80 0 -80 0 0
-40z"/>
</g>
</svg>
